<svg width="16" height="17" viewBox="0 0 16 17" fill="none" xmlns="http://www.w3.org/2000/svg">
<path d="M6.5 13.1618C2.91554 13.1618 0 10.2462 0 6.66406C0 3.08191 2.91554 0.164062 6.5 0.164062C10.0845 0.164062 13 3.07961 13 6.66406C13 10.2485 10.0845 13.1641 6.5 13.1641V13.1618ZM6.5 1.31736C3.55216 1.31736 1.1533 3.71623 1.1533 6.66406C1.1533 9.6119 3.55216 12.0108 6.5 12.0108C9.44783 12.0108 11.8467 9.6119 11.8467 6.66406C11.8467 3.71623 9.44783 1.31736 6.5 1.31736Z" fill="#676A5E"/>
<path d="M15.3988 16.1641C15.2452 16.1641 15.0916 16.1065 14.974 15.9888L10.1764 11.1903C9.9412 10.955 9.9412 10.5757 10.1764 10.3405C10.4116 10.1053 10.7908 10.1053 11.026 10.3405L15.8236 15.1391C16.0588 15.3743 16.0588 15.7536 15.8236 15.9888C15.706 16.1065 15.5524 16.1641 15.3988 16.1641Z" fill="#676A5E"/>
</svg>
