<svg width="16" height="17" viewBox="0 0 16 17" fill="none" xmlns="http://www.w3.org/2000/svg">
<path d="M11.0847 16.1641H4.91525C2.75636 16.1641 1 14.4114 1 12.2571V9.6926C1 9.40085 1.23729 9.16406 1.52966 9.16406C1.82203 9.16406 2.05932 9.40085 2.05932 9.6926V12.2571C2.05932 13.8279 3.3411 15.107 4.91525 15.107H11.0847C12.6589 15.107 13.9407 13.8279 13.9407 12.2571V9.6926C13.9407 9.40085 14.178 9.16406 14.4703 9.16406C14.7627 9.16406 15 9.40085 15 9.6926V12.2571C15 14.4114 13.2436 16.1641 11.0847 16.1641Z" fill="#676A5E"/>
<path d="M9.49512 4.16406C9.24686 4.16406 9.03263 3.95342 8.9986 3.66492L8.72831 1.30659H6.26569L5.9954 3.66492C5.95936 3.9786 5.70909 4.2007 5.4348 4.15719C5.16051 4.11598 4.9683 3.82749 5.00434 3.51609L5.33269 0.660914C5.36473 0.376999 5.57695 0.164062 5.82922 0.164062H9.17078C9.42105 0.164062 9.63527 0.376999 9.66731 0.660914L9.99566 3.51609C10.0317 3.82978 9.83949 4.11598 9.5652 4.15719C9.54318 4.15948 9.52115 4.16177 9.49913 4.16177L9.49512 4.16406Z" fill="#676A5E"/>
<path d="M8.08008 10.1641H7.92059C7.08016 10.1641 6.28062 9.77764 5.72647 9.10302C5.17232 8.42841 4.91467 7.52893 5.02509 6.63819C5.0619 6.33909 5.3175 6.1295 5.59765 6.1688C5.87779 6.2081 6.0741 6.481 6.03729 6.7801C5.96572 7.35864 6.1334 7.94374 6.49329 8.38257C6.85318 8.82139 7.37461 9.07246 7.92059 9.07246H8.08008C8.62606 9.07246 9.14545 8.82139 9.50738 8.38257C9.86932 7.94374 10.035 7.35864 9.96338 6.7801C9.92657 6.481 10.1249 6.2081 10.403 6.1688C10.6832 6.13168 10.9388 6.34127 10.9756 6.63819C11.084 7.52893 10.8283 8.42623 10.2742 9.10302C9.72005 9.77764 8.92051 10.1641 8.08008 10.1641Z" fill="#676A5E"/>
<path d="M3.06427 10.1641C2.04924 10.1641 1.10073 9.66299 0.52991 8.82145C-0.0409108 7.98205 -0.158938 6.91995 0.216602 5.97991L1.0621 3.8343C1.93979 1.60518 4.05998 0.164062 6.46344 0.164062C6.61795 0.164062 6.76387 0.230444 6.86688 0.346075C6.96988 0.461707 7.01495 0.615883 6.99563 0.767917L6.6437 3.43815C6.60507 3.73151 6.33683 3.93922 6.04283 3.89854C5.74884 3.85999 5.54283 3.59019 5.58146 3.29897L5.84755 1.27327C4.15011 1.49169 2.7016 2.60303 2.05997 4.22616L1.21447 6.37391C0.967682 6.9949 1.04279 7.66727 1.41833 8.22188C1.79602 8.77648 2.39473 9.0934 3.06427 9.0934C4.06213 9.0934 4.91192 8.35036 5.04068 7.36321L5.13081 6.70368C5.17158 6.41032 5.43982 6.20689 5.73382 6.24543C6.02781 6.28612 6.23382 6.55378 6.19305 6.84715L6.10292 7.50453C5.90549 9.02059 4.59862 10.1641 3.06212 10.1641H3.06427Z" fill="#676A5E"/>
<path d="M12.9388 10.1598C11.402 10.1598 10.0948 9.01441 9.89729 7.49654L9.80929 6.84357C9.7685 6.55027 9.97456 6.28053 10.2686 6.24199C10.5627 6.20345 10.8331 6.40684 10.8718 6.70014L10.9619 7.35738C11.0907 8.34646 11.9407 9.08935 12.9388 9.08935C13.6085 9.08935 14.2095 8.7725 14.5851 8.21801C14.9608 7.66567 15.0359 6.99343 14.789 6.37258L13.9412 4.22315C13.5935 3.33897 12.9925 2.58753 12.2026 2.05231C11.5844 1.6327 10.8868 1.36723 10.1527 1.27303L10.4189 3.29829C10.4575 3.59159 10.2515 3.8592 9.95739 3.89774C9.66333 3.93841 9.39502 3.73075 9.35639 3.43745L9.00437 0.767788C8.98505 0.615786 9.03013 0.461643 9.13316 0.346036C9.23618 0.230429 9.38214 0.164062 9.53669 0.164062C10.7086 0.164062 11.8398 0.510883 12.8079 1.17027C13.7759 1.82966 14.5143 2.75023 14.9393 3.83565L15.785 5.98294C16.1585 6.92065 16.0404 7.98466 15.4695 8.82174C14.8985 9.66096 13.9498 10.1641 12.9345 10.1641L12.9388 10.1598Z" fill="#676A5E"/>
</svg>
