<svg width="12" height="17" viewBox="0 0 12 17" fill="none" xmlns="http://www.w3.org/2000/svg">
<path d="M10.4882 16.1641H1.5127C1.05451 16.1641 0.626288 15.9474 0.33724 15.5706C0.0460504 15.187 -0.0652868 14.6905 0.037486 14.2076C0.64984 11.2853 3.15707 9.16406 6.00045 9.16406C8.84383 9.16406 11.3511 11.2853 11.9634 14.2076C12.064 14.6905 11.9548 15.187 11.6637 15.5706C11.3767 15.9474 10.9485 16.1641 10.4882 16.1641ZM6.00045 10.2924C3.65594 10.2924 1.58764 12.0412 1.08234 14.4513C1.05237 14.598 1.08234 14.7492 1.17227 14.8643C1.22151 14.9274 1.33071 15.0358 1.5127 15.0358H10.4882C10.6702 15.0358 10.7794 14.9274 10.8286 14.8643C10.9164 14.7492 10.9485 14.598 10.9186 14.4513C10.4133 12.0412 8.34495 10.2924 6.00045 10.2924Z" fill="#676A5E"/>
<path d="M6 8.16189C3.79445 8.16189 2 6.36743 2 4.16189C2 1.95634 3.79445 0.164062 6 0.164062C8.20555 0.164062 10 1.95852 10 4.16406C10 6.36961 8.20555 8.16406 6 8.16406V8.16189ZM6 1.25161C4.39478 1.25161 3.08755 2.55667 3.08755 4.16406C3.08755 5.77146 4.3926 7.07652 6 7.07652C7.6074 7.07652 8.91245 5.77146 8.91245 4.16406C8.91245 2.55667 7.6074 1.25161 6 1.25161Z" fill="#676A5E"/>
</svg>
